<svg width="36" height="36" viewBox="0 0 36 36" fill="none" xmlns="http://www.w3.org/2000/svg">
    <path d="M17.5 27.75C11.85 27.75 7.25 23.15 7.25 17.5C7.25 11.85 11.85 7.25 17.5 7.25C23.15 7.25 27.75 11.85 27.75 17.5C27.75 23.15 23.15 27.75 17.5 27.75ZM17.5 8.75C12.67 8.75 8.75 12.68 8.75 17.5C8.75 22.32 12.67 26.25 17.5 26.25C22.33 26.25 26.25 22.32 26.25 17.5C26.25 12.68 22.33 8.75 17.5 8.75Z"
          fill-opacity="0.72"/>
    <path d="M27.9999 28.7499C27.8099 28.7499 27.6199 28.6799 27.4699 28.5299L25.4699 26.5299C25.1799 26.2399 25.1799 25.7599 25.4699 25.4699C25.7599 25.1799 26.2399 25.1799 26.5299 25.4699L28.5299 27.4699C28.8199 27.7599 28.8199 28.2399 28.5299 28.5299C28.3799 28.6799 28.1899 28.7499 27.9999 28.7499Z"
          fill-opacity="0.72"/>
</svg>
